<svg width="21" height="21" viewBox="0 0 21 21" fill="none" xmlns="http://www.w3.org/2000/svg">
<path d="M7.75022 2.63521C7.75022 1.74505 8.47184 1.02344 9.36199 1.02344H11.6384C12.5286 1.02344 13.2502 1.74506 13.2502 2.63522C13.2502 3.87597 14.5934 4.65143 15.6679 4.03105C16.4388 3.58596 17.4246 3.85009 17.8697 4.62101L19.0079 6.59242C19.453 7.36333 19.1889 8.34909 18.4179 8.79418C17.3434 9.41456 17.3434 10.9655 18.4179 11.5859C19.1889 12.031 19.453 13.0168 19.0079 13.7877L17.8697 15.7591C17.4246 16.53 16.4389 16.7941 15.6679 16.349C14.5934 15.7287 13.2502 16.5042 13.2502 17.7449C13.2502 18.6351 12.5286 19.3568 11.6384 19.3568H9.36204C8.47186 19.3568 7.75022 18.6351 7.75022 17.7449C7.75022 16.5042 6.40706 15.7287 5.33253 16.349C4.56162 16.7941 3.57586 16.53 3.13078 15.7591L1.99258 13.7877C1.54749 13.0168 1.81162 12.031 2.58254 11.5859C3.65707 10.9655 3.65707 9.41456 2.58254 8.79418C1.81162 8.34909 1.54749 7.36333 1.99258 6.59241L3.13078 4.62099C3.57586 3.85008 4.56163 3.58596 5.33254 4.03104C6.40706 4.65141 7.75022 3.87596 7.75022 2.63521Z" stroke="#5F6D7E" stroke-width="1.67"/>
<path d="M14.1669 10.1901C14.1669 12.2151 12.5253 13.8568 10.5002 13.8568C8.47517 13.8568 6.83355 12.2151 6.83355 10.1901C6.83355 8.16506 8.47517 6.52344 10.5002 6.52344C12.5253 6.52344 14.1669 8.16506 14.1669 10.1901Z" stroke="#5F6D7E" stroke-width="1.67"/>
</svg>
